<?xml version="1.0" encoding="utf-8"?>
<!-- Generator: Adobe Illustrator 27.0.1, SVG Export Plug-In . SVG Version: 6.00 Build 0)  -->
<svg version="1.1" id="Layer_1" xmlns="http://www.w3.org/2000/svg" xmlns:xlink="http://www.w3.org/1999/xlink" x="0px" y="0px"
	 viewBox="0 0 241.5 82.5" style="enable-background:new 0 0 241.5 82.5;" xml:space="preserve">
<style type="text/css">
	.st0{fill:#0b63e5;}
</style>
<g id="XMLID_54_">
	<path id="XMLID_66_" class="st0" d="M91.4,26.7h-0.2c-1.4-1.9-3.3-3.3-5.5-4.1s-4.6-1.2-7.2-1.2c-2.9,0-5.4,0.6-7.7,1.8
		s-4.2,2.8-5.7,4.7c-1.6,2-2.8,4.2-3.6,6.8c-0.9,2.6-1.3,5.2-1.3,8c0,3,0.5,5.8,1.4,8.3s2.3,4.7,4,6.6c1.7,1.8,3.8,3.3,6.2,4.3
		s5.1,1.5,8.1,1.5c1.4,0,2.7-0.2,4-0.6c1.3-0.4,2.5-0.9,3.5-1.5c1.1-0.6,2-1.3,2.8-2s1.4-1.5,1.9-2.2h0.2v5.3h11.4V0H91.3L91.4,26.7
		L91.4,26.7z M89.8,49.8c-1.7,1.9-4.2,2.8-7.3,2.8s-5.6-0.9-7.3-2.8c-1.7-1.9-2.6-4.3-2.6-7.3s0.9-5.5,2.6-7.3
		c1.7-1.9,4.2-2.8,7.3-2.8s5.6,0.9,7.3,2.8c1.7,1.9,2.6,4.3,2.6,7.3S91.5,47.9,89.8,49.8z"/>
	<rect id="XMLID_67_" x="108.9" y="22.4" class="st0" width="12.4" height="40.1"/>
	<path id="XMLID_68_" class="st0" d="M115.1,2.6c-2,0-3.7,0.7-5.1,2.1s-2.1,3.1-2.1,5.1s0.7,3.7,2.1,5.1s3.1,2.1,5.1,2.1
		s3.7-0.7,5.1-2.1s2.1-3.1,2.1-5.1s-0.7-3.7-2.1-5.1C118.8,3.3,117.1,2.6,115.1,2.6z"/>
	<path id="XMLID_71_" class="st0" d="M155.9,27.7h-0.2c-0.5-0.7-1.2-1.4-2-2.2c-0.8-0.7-1.8-1.4-3-2s-2.5-1.1-3.9-1.5
		c-1.5-0.4-3.1-0.6-4.8-0.6c-2.9,0-5.4,0.6-7.7,1.8s-4.2,2.7-5.7,4.7c-1.6,1.9-2.8,4.2-3.6,6.7c-0.9,2.5-1.3,5.1-1.3,7.8
		c0,3,0.5,5.8,1.4,8.3s2.3,4.7,4,6.6c1.7,1.8,3.8,3.3,6.2,4.3s5.1,1.5,8.1,1.5c1.9,0,3.9-0.4,6-1.2s3.9-2.2,5.3-4.1h0.2v3.9
		c0,2.9-0.9,5.2-2.7,7.1c-1.8,1.8-4.6,2.8-8.4,2.8c-2.5,0-4.9-0.5-7-1.4s-4.1-2.2-6.1-3.8l-6.8,10.2c2.9,2.3,6.1,3.9,9.6,4.7
		s7,1.2,10.6,1.2c7.8,0,13.6-2,17.5-5.9c3.8-3.9,5.7-9.7,5.7-17.3V22.6h-11.4L155.9,27.7L155.9,27.7z M155.2,46
		c-0.5,1.2-1.2,2.2-2.1,3.1c-0.9,0.9-2,1.6-3.2,2.2c-1.2,0.6-2.5,0.8-3.9,0.8s-2.7-0.3-3.9-0.8s-2.2-1.3-3.1-2.2
		c-0.9-0.9-1.6-2-2.1-3.1c-0.5-1.2-0.7-2.4-0.7-3.8s0.2-2.6,0.7-3.8s1.2-2.2,2.1-3.1c0.9-0.9,2-1.6,3.1-2.2c1.2-0.5,2.5-0.8,3.9-0.8
		s2.7,0.3,3.9,0.8c1.2,0.6,2.3,1.3,3.2,2.2s1.6,2,2.1,3.1c0.5,1.2,0.7,2.4,0.7,3.8S155.7,44.8,155.2,46z"/>
	<path id="XMLID_72_" class="st0" d="M178.6,17c2,0,3.7-0.7,5.1-2.1c1.4-1.4,2.1-3.1,2.1-5.1s-0.7-3.7-2.1-5.1
		c-1.4-1.4-3.1-2.1-5.1-2.1s-3.7,0.7-5.1,2.1c-1.4,1.4-2.1,3.1-2.1,5.1s0.7,3.7,2.1,5.1S176.6,17,178.6,17z"/>
	<path id="XMLID_73_" class="st0" d="M241.4,32.3v-9.9h-10.9V10.5h-12.4v11.9h-3.7h-4.2h-6.7V10.5h-12.3v11.9h-6.4h-1.6h-10.8v40.1
		h12.4V32.3h6.4v19.1c0,2.2,0.4,4.1,1.1,5.6s1.8,2.8,3.1,3.8s2.9,1.7,4.6,2.1c1.8,0.4,3.7,0.7,5.8,0.7c1.4,0,2.9-0.1,4.4-0.2
		c1.5-0.2,2.9-0.5,4.3-1V52.1c-0.6,0.5-1.4,0.8-2.4,0.9c-1.1,0.1-1.9,0.2-2.6,0.2c-1.3,0-2.4-0.2-3.2-0.5c-0.8-0.4-1.4-0.9-1.8-1.5
		c-0.4-0.7-0.6-1.4-0.7-2.4c-0.1-0.9-0.2-1.9-0.2-3V32.4h6.7h4.2h3.7v19.1c0,2.2,0.4,4.1,1.1,5.6s1.8,2.8,3.1,3.8s2.9,1.7,4.6,2.1
		c1.8,0.4,3.7,0.7,5.8,0.7c1.4,0,2.9-0.1,4.4-0.2c1.5-0.2,2.9-0.5,4.3-1V52.2c-0.6,0.5-1.4,0.8-2.4,0.9c-1.1,0.1-1.9,0.2-2.6,0.2
		c-1.3,0-2.4-0.2-3.2-0.5c-0.8-0.4-1.4-0.9-1.8-1.5c-0.4-0.7-0.6-1.4-0.7-2.4c-0.1-0.9-0.2-1.9-0.2-3V32.5h10.8L241.4,32.3
		L241.4,32.3z"/>
</g>
<path id="XMLID_10_" class="st0" d="M55.1,55.1h-9.5l6.1-22c0.7-2.5,0.9-4.7,0.5-6.5s-1.2-3.2-2.5-4.3s-2.9-1.9-4.9-2.4
	s-4.2-0.8-6.7-0.8c-0.1,0-0.3,0-0.4,0l0,0h-9.9l3.5-12.7H16.5l-3.6,12.8H3.3l-0.2,1.1L0,31.5h9.5l-6.1,22C2.7,56,2.5,58.2,2.9,60
	s1.2,3.2,2.5,4.3c1.3,1.1,2.9,1.9,4.9,2.4c1.7,0.5,3.7,0.7,5.9,0.8l0,0h11.2l-3.5,12.7h14.8l3.6-12.8h9.5l0.2-0.9l0,0L55.1,55.1z
	 M18.8,51.3l4.3-16.1c0.3-1.3,0.5-2.2,1-2.8l0,0l0,0c0.6-0.8,1.7-1.2,3.9-1.2h5.7c2.2,0,3.4,1.5,2.8,4l-4.3,16.1
	c-0.9,2.9-1.1,4-4.9,4h-5.7C19.1,55.3,18.2,53.5,18.8,51.3z"/>
</svg>
